<mxfile host="app.diagrams.net" modified="2020-12-04T22:31:03.200Z" agent="5.0 (Windows NT 10.0; Win64; x64) AppleWebKit/537.36 (KHTML, like Gecko) Chrome/87.0.4280.88 Safari/537.36" etag="8bCVAAJ5Y_pPWHs73Lcb" version="13.10.6" type="github">
  <diagram id="cTnudkRpIFLlQ843b-p1" name="Page-1">
    <mxGraphModel dx="1422" dy="762" grid="1" gridSize="10" guides="1" tooltips="1" connect="1" arrows="1" fold="1" page="1" pageScale="1" pageWidth="850" pageHeight="1100" math="0" shadow="0">
      <root>
        <mxCell id="0" />
        <mxCell id="1" parent="0" />
        <mxCell id="HdaTK88QyHEWT4oddSAA-1" value="Student" style="shape=umlActor;verticalLabelPosition=bottom;verticalAlign=top;html=1;outlineConnect=0;" vertex="1" parent="1">
          <mxGeometry x="520" y="100" width="30" height="60" as="geometry" />
        </mxCell>
        <mxCell id="HdaTK88QyHEWT4oddSAA-5" value="Tutor" style="shape=umlActor;verticalLabelPosition=bottom;verticalAlign=top;html=1;outlineConnect=0;fillColor=#f8cecc;strokeColor=#b85450;" vertex="1" parent="1">
          <mxGeometry x="380" y="100" width="30" height="60" as="geometry" />
        </mxCell>
        <mxCell id="HdaTK88QyHEWT4oddSAA-6" value="User" style="shape=umlActor;verticalLabelPosition=bottom;verticalAlign=top;html=1;outlineConnect=0;" vertex="1" parent="1">
          <mxGeometry x="450" y="10" width="30" height="60" as="geometry" />
        </mxCell>
        <mxCell id="HdaTK88QyHEWT4oddSAA-10" value="" style="endArrow=none;html=1;strokeWidth=2;" edge="1" parent="1">
          <mxGeometry width="50" height="50" relative="1" as="geometry">
            <mxPoint x="390" y="190" as="sourcePoint" />
            <mxPoint x="540" y="190" as="targetPoint" />
            <Array as="points">
              <mxPoint x="390" y="210" />
              <mxPoint x="540" y="210" />
            </Array>
          </mxGeometry>
        </mxCell>
        <mxCell id="HdaTK88QyHEWT4oddSAA-11" value="" style="endArrow=none;html=1;" edge="1" parent="1">
          <mxGeometry width="50" height="50" relative="1" as="geometry">
            <mxPoint x="464.58" y="230" as="sourcePoint" />
            <mxPoint x="464.58" y="210" as="targetPoint" />
          </mxGeometry>
        </mxCell>
        <mxCell id="HdaTK88QyHEWT4oddSAA-12" value="" style="endArrow=none;html=1;exitX=0.5;exitY=0;exitDx=0;exitDy=0;strokeWidth=2;" edge="1" parent="1" source="HdaTK88QyHEWT4oddSAA-14">
          <mxGeometry width="50" height="50" relative="1" as="geometry">
            <mxPoint x="501" y="250" as="sourcePoint" />
            <mxPoint x="280" y="250" as="targetPoint" />
            <Array as="points">
              <mxPoint x="660" y="230" />
              <mxPoint x="280" y="230" />
            </Array>
          </mxGeometry>
        </mxCell>
        <mxCell id="HdaTK88QyHEWT4oddSAA-15" style="edgeStyle=orthogonalEdgeStyle;rounded=0;orthogonalLoop=1;jettySize=auto;html=1;exitX=0.5;exitY=1;exitDx=0;exitDy=0;" edge="1" parent="1" source="HdaTK88QyHEWT4oddSAA-13">
          <mxGeometry relative="1" as="geometry">
            <mxPoint x="280.6896551724137" y="300" as="targetPoint" />
          </mxGeometry>
        </mxCell>
        <mxCell id="HdaTK88QyHEWT4oddSAA-13" value="Sign Up" style="ellipse;whiteSpace=wrap;html=1;" vertex="1" parent="1">
          <mxGeometry x="246" y="250" width="70" height="30" as="geometry" />
        </mxCell>
        <mxCell id="HdaTK88QyHEWT4oddSAA-51" style="edgeStyle=orthogonalEdgeStyle;rounded=0;orthogonalLoop=1;jettySize=auto;html=1;exitX=0.5;exitY=1;exitDx=0;exitDy=0;entryX=0.5;entryY=0;entryDx=0;entryDy=0;" edge="1" parent="1" source="HdaTK88QyHEWT4oddSAA-14" target="HdaTK88QyHEWT4oddSAA-47">
          <mxGeometry relative="1" as="geometry" />
        </mxCell>
        <mxCell id="HdaTK88QyHEWT4oddSAA-14" value="Login" style="ellipse;whiteSpace=wrap;html=1;" vertex="1" parent="1">
          <mxGeometry x="625" y="250" width="70" height="30" as="geometry" />
        </mxCell>
        <mxCell id="HdaTK88QyHEWT4oddSAA-17" style="edgeStyle=orthogonalEdgeStyle;rounded=0;orthogonalLoop=1;jettySize=auto;html=1;exitX=0.5;exitY=1;exitDx=0;exitDy=0;" edge="1" parent="1" source="HdaTK88QyHEWT4oddSAA-16">
          <mxGeometry relative="1" as="geometry">
            <mxPoint x="280.7241379310344" y="360.0000000000001" as="targetPoint" />
          </mxGeometry>
        </mxCell>
        <mxCell id="HdaTK88QyHEWT4oddSAA-16" value="Collect user data" style="ellipse;whiteSpace=wrap;html=1;" vertex="1" parent="1">
          <mxGeometry x="238.75" y="300" width="84.5" height="40" as="geometry" />
        </mxCell>
        <mxCell id="HdaTK88QyHEWT4oddSAA-24" style="edgeStyle=orthogonalEdgeStyle;rounded=0;orthogonalLoop=1;jettySize=auto;html=1;exitX=0.5;exitY=1;exitDx=0;exitDy=0;" edge="1" parent="1" source="HdaTK88QyHEWT4oddSAA-21">
          <mxGeometry relative="1" as="geometry">
            <mxPoint x="280.7241379310344" y="420.0000000000001" as="targetPoint" />
          </mxGeometry>
        </mxCell>
        <mxCell id="HdaTK88QyHEWT4oddSAA-21" value="Verify user" style="ellipse;whiteSpace=wrap;html=1;fillColor=#dae8fc;strokeColor=#6c8ebf;" vertex="1" parent="1">
          <mxGeometry x="241.5" y="360" width="79" height="40" as="geometry" />
        </mxCell>
        <mxCell id="HdaTK88QyHEWT4oddSAA-56" style="edgeStyle=orthogonalEdgeStyle;rounded=0;orthogonalLoop=1;jettySize=auto;html=1;strokeWidth=2;" edge="1" parent="1" source="HdaTK88QyHEWT4oddSAA-22">
          <mxGeometry relative="1" as="geometry">
            <mxPoint x="500" y="321" as="targetPoint" />
            <Array as="points">
              <mxPoint x="281" y="480" />
              <mxPoint x="450" y="480" />
              <mxPoint x="450" y="320" />
            </Array>
          </mxGeometry>
        </mxCell>
        <mxCell id="HdaTK88QyHEWT4oddSAA-22" value="Profile creation" style="ellipse;whiteSpace=wrap;html=1;" vertex="1" parent="1">
          <mxGeometry x="241.5" y="422.5" width="79" height="40" as="geometry" />
        </mxCell>
        <mxCell id="HdaTK88QyHEWT4oddSAA-27" value="Schedule creation" style="ellipse;whiteSpace=wrap;html=1;fillColor=#f8cecc;strokeColor=#b85450;" vertex="1" parent="1">
          <mxGeometry x="30" y="420" width="81.5" height="42.5" as="geometry" />
        </mxCell>
        <mxCell id="HdaTK88QyHEWT4oddSAA-29" value="" style="endArrow=none;dashed=1;html=1;" edge="1" parent="1" source="HdaTK88QyHEWT4oddSAA-32">
          <mxGeometry width="50" height="50" relative="1" as="geometry">
            <mxPoint x="150" y="320" as="sourcePoint" />
            <mxPoint x="238.75" y="319.66" as="targetPoint" />
          </mxGeometry>
        </mxCell>
        <mxCell id="HdaTK88QyHEWT4oddSAA-30" value="" style="endArrow=none;dashed=1;html=1;exitX=1;exitY=0.5;exitDx=0;exitDy=0;" edge="1" parent="1" source="HdaTK88QyHEWT4oddSAA-26">
          <mxGeometry width="50" height="50" relative="1" as="geometry">
            <mxPoint x="191.5" y="492.5" as="sourcePoint" />
            <mxPoint x="241.5" y="442.5" as="targetPoint" />
          </mxGeometry>
        </mxCell>
        <mxCell id="HdaTK88QyHEWT4oddSAA-26" value="&amp;lt;&amp;lt;extend&amp;gt;&amp;gt;" style="text;html=1;align=center;verticalAlign=middle;resizable=0;points=[];autosize=1;" vertex="1" parent="1">
          <mxGeometry x="140" y="432.5" width="80" height="20" as="geometry" />
        </mxCell>
        <mxCell id="HdaTK88QyHEWT4oddSAA-31" value="" style="endArrow=none;dashed=1;html=1;exitX=1;exitY=0.5;exitDx=0;exitDy=0;" edge="1" parent="1" source="HdaTK88QyHEWT4oddSAA-27" target="HdaTK88QyHEWT4oddSAA-26">
          <mxGeometry width="50" height="50" relative="1" as="geometry">
            <mxPoint x="111.49999999999864" y="442.5000000000001" as="sourcePoint" />
            <mxPoint x="241.5" y="442.5000000000001" as="targetPoint" />
          </mxGeometry>
        </mxCell>
        <mxCell id="HdaTK88QyHEWT4oddSAA-32" value="&amp;lt;&amp;lt;extend&amp;gt;&amp;gt;" style="text;html=1;align=center;verticalAlign=middle;resizable=0;points=[];autosize=1;" vertex="1" parent="1">
          <mxGeometry x="140" y="310" width="80" height="20" as="geometry" />
        </mxCell>
        <mxCell id="HdaTK88QyHEWT4oddSAA-33" value="" style="endArrow=none;dashed=1;html=1;" edge="1" parent="1" target="HdaTK88QyHEWT4oddSAA-32">
          <mxGeometry width="50" height="50" relative="1" as="geometry">
            <mxPoint x="110" y="320" as="sourcePoint" />
            <mxPoint x="238.75" y="319.6600000000001" as="targetPoint" />
          </mxGeometry>
        </mxCell>
        <mxCell id="HdaTK88QyHEWT4oddSAA-34" value="Invalid credentials" style="ellipse;whiteSpace=wrap;html=1;" vertex="1" parent="1">
          <mxGeometry x="30" y="295" width="81.5" height="50" as="geometry" />
        </mxCell>
        <mxCell id="HdaTK88QyHEWT4oddSAA-35" value="" style="shape=datastore;whiteSpace=wrap;html=1;fillColor=#0050ef;strokeColor=#001DBC;fontColor=#ffffff;" vertex="1" parent="1">
          <mxGeometry x="435" y="690" width="60" height="60" as="geometry" />
        </mxCell>
        <mxCell id="HdaTK88QyHEWT4oddSAA-37" value="" style="endArrow=classic;html=1;exitX=1;exitY=0.5;exitDx=0;exitDy=0;entryX=0.3;entryY=0;entryDx=0;entryDy=0;entryPerimeter=0;fillColor=#0050ef;strokeColor=#001DBC;" edge="1" parent="1" source="HdaTK88QyHEWT4oddSAA-16" target="HdaTK88QyHEWT4oddSAA-35">
          <mxGeometry width="50" height="50" relative="1" as="geometry">
            <mxPoint x="410" y="550" as="sourcePoint" />
            <mxPoint x="480" y="500" as="targetPoint" />
            <Array as="points">
              <mxPoint x="420" y="320" />
              <mxPoint x="420" y="390" />
              <mxPoint x="420" y="630" />
            </Array>
          </mxGeometry>
        </mxCell>
        <mxCell id="HdaTK88QyHEWT4oddSAA-38" value="" style="endArrow=none;dashed=1;html=1;" edge="1" parent="1">
          <mxGeometry width="50" height="50" relative="1" as="geometry">
            <mxPoint x="220" y="502.5" as="sourcePoint" />
            <mxPoint x="248" y="459.5" as="targetPoint" />
            <Array as="points">
              <mxPoint x="230" y="502.5" />
            </Array>
          </mxGeometry>
        </mxCell>
        <mxCell id="HdaTK88QyHEWT4oddSAA-40" value="&amp;lt;&amp;lt;extend&amp;gt;&amp;gt;" style="text;html=1;strokeColor=none;fillColor=none;align=center;verticalAlign=middle;whiteSpace=wrap;rounded=0;" vertex="1" parent="1">
          <mxGeometry x="160" y="492.5" width="40" height="20" as="geometry" />
        </mxCell>
        <mxCell id="HdaTK88QyHEWT4oddSAA-41" value="" style="endArrow=none;dashed=1;html=1;" edge="1" parent="1">
          <mxGeometry width="50" height="50" relative="1" as="geometry">
            <mxPoint x="110" y="502.5" as="sourcePoint" />
            <mxPoint x="140" y="502.5" as="targetPoint" />
            <Array as="points" />
          </mxGeometry>
        </mxCell>
        <mxCell id="HdaTK88QyHEWT4oddSAA-42" value="Exceeded course limit" style="ellipse;whiteSpace=wrap;html=1;" vertex="1" parent="1">
          <mxGeometry x="30" y="482.5" width="86.5" height="40" as="geometry" />
        </mxCell>
        <mxCell id="HdaTK88QyHEWT4oddSAA-43" value="Profile" style="ellipse;whiteSpace=wrap;html=1;" vertex="1" parent="1">
          <mxGeometry x="500" y="302.5" width="90" height="37.5" as="geometry" />
        </mxCell>
        <mxCell id="HdaTK88QyHEWT4oddSAA-45" value="" style="endArrow=classic;html=1;entryX=0.15;entryY=0.05;entryDx=0;entryDy=0;entryPerimeter=0;fillColor=#0050ef;strokeColor=#001DBC;" edge="1" parent="1" target="HdaTK88QyHEWT4oddSAA-35">
          <mxGeometry width="50" height="50" relative="1" as="geometry">
            <mxPoint x="320.5" y="440" as="sourcePoint" />
            <mxPoint x="400" y="440" as="targetPoint" />
            <Array as="points">
              <mxPoint x="380" y="440" />
              <mxPoint x="380" y="640" />
            </Array>
          </mxGeometry>
        </mxCell>
        <mxCell id="HdaTK88QyHEWT4oddSAA-47" value="Homepage" style="ellipse;whiteSpace=wrap;html=1;" vertex="1" parent="1">
          <mxGeometry x="620" y="301.25" width="80" height="40" as="geometry" />
        </mxCell>
        <mxCell id="HdaTK88QyHEWT4oddSAA-50" value="Search" style="ellipse;whiteSpace=wrap;html=1;" vertex="1" parent="1">
          <mxGeometry x="750" y="300" width="80" height="40" as="geometry" />
        </mxCell>
        <mxCell id="HdaTK88QyHEWT4oddSAA-60" value="" style="endArrow=none;dashed=1;html=1;" edge="1" parent="1">
          <mxGeometry width="50" height="50" relative="1" as="geometry">
            <mxPoint x="700" y="264.58000000000004" as="sourcePoint" />
            <mxPoint x="760" y="230" as="targetPoint" />
          </mxGeometry>
        </mxCell>
        <mxCell id="HdaTK88QyHEWT4oddSAA-61" value="&amp;lt;&amp;lt;extend&amp;gt;&amp;gt;" style="edgeLabel;html=1;align=center;verticalAlign=middle;resizable=0;points=[];" vertex="1" connectable="0" parent="HdaTK88QyHEWT4oddSAA-60">
          <mxGeometry x="-0.3079" relative="1" as="geometry">
            <mxPoint x="9.21" y="-2.5999999999999996" as="offset" />
          </mxGeometry>
        </mxCell>
        <mxCell id="HdaTK88QyHEWT4oddSAA-62" value="Pass recovery" style="ellipse;whiteSpace=wrap;html=1;" vertex="1" parent="1">
          <mxGeometry x="750" y="210" width="80" height="40" as="geometry" />
        </mxCell>
        <mxCell id="HdaTK88QyHEWT4oddSAA-65" value="" style="endArrow=none;dashed=1;html=1;strokeWidth=2;" edge="1" parent="1">
          <mxGeometry width="50" height="50" relative="1" as="geometry">
            <mxPoint x="10" y="200" as="sourcePoint" />
            <mxPoint x="840" y="200" as="targetPoint" />
          </mxGeometry>
        </mxCell>
        <mxCell id="HdaTK88QyHEWT4oddSAA-66" value="" style="endArrow=none;dashed=1;html=1;strokeWidth=2;" edge="1" parent="1">
          <mxGeometry width="50" height="50" relative="1" as="geometry">
            <mxPoint x="10" y="610" as="sourcePoint" />
            <mxPoint x="10" y="200" as="targetPoint" />
          </mxGeometry>
        </mxCell>
        <mxCell id="HdaTK88QyHEWT4oddSAA-67" value="" style="endArrow=none;dashed=1;html=1;strokeWidth=2;" edge="1" parent="1">
          <mxGeometry width="50" height="50" relative="1" as="geometry">
            <mxPoint x="840" y="610" as="sourcePoint" />
            <mxPoint x="840" y="200" as="targetPoint" />
          </mxGeometry>
        </mxCell>
        <mxCell id="HdaTK88QyHEWT4oddSAA-68" value="" style="endArrow=none;dashed=1;html=1;strokeWidth=2;" edge="1" parent="1">
          <mxGeometry width="50" height="50" relative="1" as="geometry">
            <mxPoint x="10" y="610" as="sourcePoint" />
            <mxPoint x="840" y="610" as="targetPoint" />
          </mxGeometry>
        </mxCell>
        <mxCell id="HdaTK88QyHEWT4oddSAA-70" value="" style="endArrow=none;html=1;strokeWidth=2;" edge="1" parent="1">
          <mxGeometry width="50" height="50" relative="1" as="geometry">
            <mxPoint x="590" y="321" as="sourcePoint" />
            <mxPoint x="620" y="320.75" as="targetPoint" />
          </mxGeometry>
        </mxCell>
        <mxCell id="HdaTK88QyHEWT4oddSAA-71" value="" style="endArrow=none;html=1;strokeWidth=2;entryX=0;entryY=0.5;entryDx=0;entryDy=0;" edge="1" parent="1" target="HdaTK88QyHEWT4oddSAA-50">
          <mxGeometry width="50" height="50" relative="1" as="geometry">
            <mxPoint x="700" y="320.75" as="sourcePoint" />
            <mxPoint x="740" y="321" as="targetPoint" />
          </mxGeometry>
        </mxCell>
        <mxCell id="HdaTK88QyHEWT4oddSAA-72" value="Edit Profile" style="ellipse;whiteSpace=wrap;html=1;" vertex="1" parent="1">
          <mxGeometry x="510" y="360" width="90" height="37.5" as="geometry" />
        </mxCell>
        <mxCell id="HdaTK88QyHEWT4oddSAA-74" value="Edit courses" style="ellipse;whiteSpace=wrap;html=1;glass=1;" vertex="1" parent="1">
          <mxGeometry x="510" y="410" width="90" height="40" as="geometry" />
        </mxCell>
        <mxCell id="HdaTK88QyHEWT4oddSAA-75" value="Edit schedule" style="ellipse;whiteSpace=wrap;html=1;glass=1;fillColor=#f8cecc;strokeColor=#b85450;" vertex="1" parent="1">
          <mxGeometry x="510" y="460" width="90" height="37.5" as="geometry" />
        </mxCell>
        <mxCell id="HdaTK88QyHEWT4oddSAA-77" value="" style="endArrow=none;html=1;strokeWidth=2;entryX=0;entryY=1;entryDx=0;entryDy=0;exitX=0;exitY=0.5;exitDx=0;exitDy=0;dashed=1;" edge="1" parent="1" source="HdaTK88QyHEWT4oddSAA-75" target="HdaTK88QyHEWT4oddSAA-43">
          <mxGeometry width="50" height="50" relative="1" as="geometry">
            <mxPoint x="513" y="480" as="sourcePoint" />
            <mxPoint x="570" y="600" as="targetPoint" />
            <Array as="points">
              <mxPoint x="490" y="440" />
              <mxPoint x="490" y="380" />
            </Array>
          </mxGeometry>
        </mxCell>
        <mxCell id="HdaTK88QyHEWT4oddSAA-91" value="&amp;lt;&amp;lt;include&amp;gt;&amp;gt;" style="edgeLabel;html=1;align=center;verticalAlign=middle;resizable=0;points=[];" vertex="1" connectable="0" parent="HdaTK88QyHEWT4oddSAA-77">
          <mxGeometry x="0.172" y="1" relative="1" as="geometry">
            <mxPoint x="1" y="12.14" as="offset" />
          </mxGeometry>
        </mxCell>
        <mxCell id="HdaTK88QyHEWT4oddSAA-78" value="" style="endArrow=none;html=1;strokeWidth=2;dashed=1;" edge="1" parent="1">
          <mxGeometry width="50" height="50" relative="1" as="geometry">
            <mxPoint x="490" y="429.5" as="sourcePoint" />
            <mxPoint x="510" y="429.5" as="targetPoint" />
          </mxGeometry>
        </mxCell>
        <mxCell id="HdaTK88QyHEWT4oddSAA-79" value="" style="endArrow=none;html=1;strokeWidth=2;dashed=1;" edge="1" parent="1">
          <mxGeometry width="50" height="50" relative="1" as="geometry">
            <mxPoint x="490" y="378" as="sourcePoint" />
            <mxPoint x="510" y="378.25" as="targetPoint" />
          </mxGeometry>
        </mxCell>
        <mxCell id="HdaTK88QyHEWT4oddSAA-80" value="" style="endArrow=none;html=1;strokeWidth=2;fillColor=#0050ef;strokeColor=#001DBC;" edge="1" parent="1">
          <mxGeometry width="50" height="50" relative="1" as="geometry">
            <mxPoint x="555" y="397.5" as="sourcePoint" />
            <mxPoint x="555" y="409.5" as="targetPoint" />
          </mxGeometry>
        </mxCell>
        <mxCell id="HdaTK88QyHEWT4oddSAA-81" value="" style="endArrow=none;html=1;strokeWidth=2;fillColor=#0050ef;strokeColor=#001DBC;" edge="1" parent="1">
          <mxGeometry width="50" height="50" relative="1" as="geometry">
            <mxPoint x="554.5" y="450" as="sourcePoint" />
            <mxPoint x="554.5" y="462" as="targetPoint" />
          </mxGeometry>
        </mxCell>
        <mxCell id="HdaTK88QyHEWT4oddSAA-82" value="" style="endArrow=classic;html=1;strokeWidth=1;entryX=0.5;entryY=0;entryDx=0;entryDy=0;fillColor=#0050ef;strokeColor=#001DBC;exitX=0.5;exitY=1;exitDx=0;exitDy=0;" edge="1" parent="1" source="HdaTK88QyHEWT4oddSAA-75" target="HdaTK88QyHEWT4oddSAA-35">
          <mxGeometry width="50" height="50" relative="1" as="geometry">
            <mxPoint x="579.5" y="500" as="sourcePoint" />
            <mxPoint x="579.5" y="560" as="targetPoint" />
            <Array as="points">
              <mxPoint x="555" y="540" />
              <mxPoint x="490" y="660" />
            </Array>
          </mxGeometry>
        </mxCell>
        <mxCell id="HdaTK88QyHEWT4oddSAA-83" value="Display appointments" style="ellipse;whiteSpace=wrap;html=1;glass=1;" vertex="1" parent="1">
          <mxGeometry x="615" y="381" width="90" height="47.5" as="geometry" />
        </mxCell>
        <mxCell id="HdaTK88QyHEWT4oddSAA-85" value="" style="endArrow=none;html=1;strokeWidth=2;fillColor=#0050ef;strokeColor=#001DBC;" edge="1" parent="1">
          <mxGeometry width="50" height="50" relative="1" as="geometry">
            <mxPoint x="660" y="380" as="sourcePoint" />
            <mxPoint x="659.5" y="341.25" as="targetPoint" />
          </mxGeometry>
        </mxCell>
        <mxCell id="HdaTK88QyHEWT4oddSAA-87" value="Cancel appointments" style="ellipse;whiteSpace=wrap;html=1;glass=1;" vertex="1" parent="1">
          <mxGeometry x="612.5" y="440" width="95" height="47.5" as="geometry" />
        </mxCell>
        <mxCell id="HdaTK88QyHEWT4oddSAA-88" value="" style="endArrow=none;html=1;strokeWidth=2;fillColor=#0050ef;strokeColor=#0027FF;" edge="1" parent="1">
          <mxGeometry width="50" height="50" relative="1" as="geometry">
            <mxPoint x="660" y="440" as="sourcePoint" />
            <mxPoint x="660" y="429" as="targetPoint" />
          </mxGeometry>
        </mxCell>
        <mxCell id="HdaTK88QyHEWT4oddSAA-90" value="" style="endArrow=classic;html=1;strokeColor=#0027FF;strokeWidth=1;exitX=0.5;exitY=1;exitDx=0;exitDy=0;entryX=0.85;entryY=0.05;entryDx=0;entryDy=0;entryPerimeter=0;" edge="1" parent="1" source="HdaTK88QyHEWT4oddSAA-87" target="HdaTK88QyHEWT4oddSAA-35">
          <mxGeometry width="50" height="50" relative="1" as="geometry">
            <mxPoint x="645" y="590" as="sourcePoint" />
            <mxPoint x="630" y="560" as="targetPoint" />
            <Array as="points">
              <mxPoint x="660" y="530" />
              <mxPoint x="530" y="660" />
            </Array>
          </mxGeometry>
        </mxCell>
        <mxCell id="HdaTK88QyHEWT4oddSAA-92" value="" style="endArrow=none;html=1;strokeWidth=2;dashed=1;entryX=1;entryY=1;entryDx=0;entryDy=0;" edge="1" parent="1" target="HdaTK88QyHEWT4oddSAA-47">
          <mxGeometry width="50" height="50" relative="1" as="geometry">
            <mxPoint x="705" y="475" as="sourcePoint" />
            <mxPoint x="715" y="320" as="targetPoint" />
            <Array as="points">
              <mxPoint x="730" y="460" />
              <mxPoint x="730" y="360" />
            </Array>
          </mxGeometry>
        </mxCell>
        <mxCell id="HdaTK88QyHEWT4oddSAA-93" value="&amp;lt;&amp;lt;include&amp;gt;&amp;gt;" style="edgeLabel;html=1;align=center;verticalAlign=middle;resizable=0;points=[];" vertex="1" connectable="0" parent="HdaTK88QyHEWT4oddSAA-92">
          <mxGeometry x="0.172" y="1" relative="1" as="geometry">
            <mxPoint x="-9" y="-25.15" as="offset" />
          </mxGeometry>
        </mxCell>
        <mxCell id="HdaTK88QyHEWT4oddSAA-94" value="" style="endArrow=none;html=1;strokeWidth=2;dashed=1;" edge="1" parent="1">
          <mxGeometry width="50" height="50" relative="1" as="geometry">
            <mxPoint x="707.5" y="404.25" as="sourcePoint" />
            <mxPoint x="727.5" y="404.5" as="targetPoint" />
          </mxGeometry>
        </mxCell>
        <mxCell id="HdaTK88QyHEWT4oddSAA-95" value="" style="endArrow=none;html=1;strokeWidth=2;strokeColor=#0027FF;" edge="1" parent="1">
          <mxGeometry width="50" height="50" relative="1" as="geometry">
            <mxPoint x="560" y="362" as="sourcePoint" />
            <mxPoint x="560" y="340" as="targetPoint" />
          </mxGeometry>
        </mxCell>
        <mxCell id="HdaTK88QyHEWT4oddSAA-100" value="" style="endArrow=classic;html=1;strokeColor=#000000;strokeWidth=2;" edge="1" parent="1">
          <mxGeometry width="50" height="50" relative="1" as="geometry">
            <mxPoint x="490" y="60" as="sourcePoint" />
            <mxPoint x="530" y="90" as="targetPoint" />
            <Array as="points">
              <mxPoint x="520" y="70" />
            </Array>
          </mxGeometry>
        </mxCell>
        <mxCell id="HdaTK88QyHEWT4oddSAA-101" value="" style="endArrow=classic;html=1;strokeColor=#000000;strokeWidth=2;" edge="1" parent="1">
          <mxGeometry width="50" height="50" relative="1" as="geometry">
            <mxPoint x="440" y="60" as="sourcePoint" />
            <mxPoint x="400" y="90" as="targetPoint" />
            <Array as="points">
              <mxPoint x="410" y="70" />
            </Array>
          </mxGeometry>
        </mxCell>
        <mxCell id="HdaTK88QyHEWT4oddSAA-102" value="Pick appointment w/ Tutor" style="ellipse;whiteSpace=wrap;html=1;glass=1;" vertex="1" parent="1">
          <mxGeometry x="746" y="359" width="90" height="50" as="geometry" />
        </mxCell>
        <mxCell id="HdaTK88QyHEWT4oddSAA-103" value="" style="endArrow=none;html=1;strokeWidth=2;strokeColor=#3333FF;" edge="1" parent="1">
          <mxGeometry width="50" height="50" relative="1" as="geometry">
            <mxPoint x="792" y="360" as="sourcePoint" />
            <mxPoint x="792" y="341.25" as="targetPoint" />
          </mxGeometry>
        </mxCell>
        <mxCell id="HdaTK88QyHEWT4oddSAA-104" value="" style="endArrow=classic;html=1;strokeColor=#3333FF;strokeWidth=1;exitX=0.5;exitY=1;exitDx=0;exitDy=0;entryX=1.033;entryY=0.133;entryDx=0;entryDy=0;entryPerimeter=0;" edge="1" parent="1" source="HdaTK88QyHEWT4oddSAA-102" target="HdaTK88QyHEWT4oddSAA-35">
          <mxGeometry width="50" height="50" relative="1" as="geometry">
            <mxPoint x="720" y="630" as="sourcePoint" />
            <mxPoint x="520" y="830" as="targetPoint" />
            <Array as="points">
              <mxPoint x="790" y="480" />
              <mxPoint x="580" y="670" />
            </Array>
          </mxGeometry>
        </mxCell>
      </root>
    </mxGraphModel>
  </diagram>
</mxfile>
